<svg xmlns="http://www.w3.org/2000/svg" width="40" height="40" viewBox="0 0 40 40">
  <circle cx="20" cy="20" r="20" fill="#6d28d9" />
  <path d="M13 15a2 2 0 100-4 2 2 0 000 4zM27 15a2 2 0 100-4 2 2 0 000 4z" fill="white" />
  <path d="M13 26c0-3.866 3.134-7 7-7s7 3.134 7 7" stroke="white" stroke-width="2" stroke-linecap="round" />
  <rect x="10" y="22" width="20" height="2" rx="1" fill="white" />
  <path d="M8 17.5C8 12.8056 12.8056 8 17.5 8h5C27.1944 8 32 12.8056 32 17.5v5c0 4.6944-4.8056 9.5-9.5 9.5h-5C12.8056 32 8 27.1944 8 22.5v-5z" stroke="white" stroke-width="2" />
</svg>