<svg width="16" height="16" viewBox="0 0 16 16" fill="none" xmlns="http://www.w3.org/2000/svg">
  <path d="M8 11.5C9.933 11.5 11.5 9.933 11.5 8C11.5 6.067 9.933 4.5 8 4.5C6.067 4.5 4.5 6.067 4.5 8C4.5 9.933 6.067 11.5 8 11.5Z" fill="white"/>
  <path d="M6 1L4.75 2.5H2.5C1.675 2.5 1 3.175 1 4V12C1 12.825 1.675 13.5 2.5 13.5H13.5C14.325 13.5 15 12.825 15 12V4C15 3.175 14.325 2.5 13.5 2.5H11.25L10 1H6ZM8 12.5C5.515 12.5 3.5 10.485 3.5 8C3.5 5.515 5.515 3.5 8 3.5C10.485 3.5 12.5 5.515 12.5 8C12.5 10.485 10.485 12.5 8 12.5Z" fill="white"/>
</svg> 