<svg width="32" height="32" viewBox="0 0 32 32" fill="none" xmlns="http://www.w3.org/2000/svg">
  <!-- Background -->
  <rect width="32" height="32" rx="6" fill="white"/>
  
  <!-- Circular arrows around the "I" -->
  <path d="M16 4 C22.627 4 28 9.373 28 16 C28 19.2 26.8 22.1 24.8 24.2" 
        stroke="#2c3e94" stroke-width="2" fill="none" stroke-linecap="round"/>
  <!-- Arrow head top -->
  <path d="M26 21 L24.8 24.2 L28 23" fill="#2c3e94"/>
  
  <!-- Bottom circular arrow -->
  <path d="M16 28 C9.373 28 4 22.627 4 16 C4 12.8 5.2 9.9 7.2 7.8" 
        stroke="#2c3e94" stroke-width="2" fill="none" stroke-linecap="round"/>
  <!-- Arrow head bottom -->
  <path d="M6 11 L7.2 7.8 L4 9" fill="#2c3e94"/>
  
  <!-- Letter "I" in the center -->
  <rect x="14" y="10" width="4" height="12" fill="#2c3e94" rx="1"/>
  <rect x="12" y="10" width="8" height="2" fill="#2c3e94" rx="1"/>
  <rect x="12" y="20" width="8" height="2" fill="#2c3e94" rx="1"/>
</svg>
