<svg xmlns="http://www.w3.org/2000/svg" viewBox="0 0 32 32" fill="none">
  <rect width="32" height="32" rx="8" fill="#0D9488"/>
  <path d="M16 8C13.2386 8 11 10.2386 11 13C11 15.7614 13.2386 18 16 18C18.7614 18 21 15.7614 21 13C21 10.2386 18.7614 8 16 8Z" fill="white"/>
  <path d="M16 12C15.4477 12 15 12.4477 15 13C15 13.5523 15.4477 14 16 14C16.5523 14 17 13.5523 17 13C17 12.4477 16.5523 12 16 12Z" fill="#0D9488"/>
  <path d="M12 20C12 18.8954 12.8954 18 14 18H18C19.1046 18 20 18.8954 20 20V22C20 22.5523 19.5523 23 19 23H13C12.4477 23 12 22.5523 12 22V20Z" fill="white"/>
  <circle cx="24" cy="8" r="3" fill="#F59E0B"/>
  <path d="M25.2071 6.79289L24.5 7.5L23.7929 6.79289C23.4024 6.40237 22.7692 6.40237 22.3787 6.79289C21.9882 7.18342 21.9882 7.81658 22.3787 8.20711L23.7929 9.62132C24.1834 10.0118 24.8166 10.0118 25.2071 9.62132L26.6213 8.20711C27.0118 7.81658 27.0118 7.18342 26.6213 6.79289C26.2308 6.40237 25.5976 6.40237 25.2071 6.79289Z" fill="white"/>
</svg>